<mxfile host="Electron" modified="2023-11-15T01:25:35.111Z" agent="Mozilla/5.0 (Macintosh; Intel Mac OS X 10_15_7) AppleWebKit/537.36 (KHTML, like Gecko) draw.io/21.6.8 Chrome/114.0.5735.289 Electron/25.5.0 Safari/537.36" etag="ZRC_06h1ZsUunOnQLOO_" version="21.6.8" type="device">
  <diagram name="Page-1" id="wK548PFpyx461JpntyU3">
    <mxGraphModel dx="1703" dy="481" grid="1" gridSize="10" guides="1" tooltips="1" connect="1" arrows="1" fold="1" page="1" pageScale="1" pageWidth="850" pageHeight="1100" math="0" shadow="0">
      <root>
        <mxCell id="0" />
        <mxCell id="1" parent="0" />
        <mxCell id="siveh0keMg_b1OPbo5xY-36" value="Methods (masked): Extract from each abstracts,&amp;nbsp;" style="text;html=1;align=center;verticalAlign=middle;resizable=0;points=[];autosize=1;strokeColor=none;fillColor=none;" vertex="1" parent="1">
          <mxGeometry x="80" y="348" width="280" height="30" as="geometry" />
        </mxCell>
        <mxCell id="siveh0keMg_b1OPbo5xY-37" value="Background + Topic + Known Article -&amp;gt; Methods&lt;br&gt;Background (Extract from each abstracts) + Topic (Article Title) + Known Article (Cited) -&amp;gt; Methods (Extract from&amp;nbsp;" style="text;html=1;align=center;verticalAlign=middle;resizable=0;points=[];autosize=1;strokeColor=none;fillColor=none;" vertex="1" parent="1">
          <mxGeometry x="-20" y="405" width="620" height="40" as="geometry" />
        </mxCell>
        <mxCell id="siveh0keMg_b1OPbo5xY-38" value="Methods + Background -&amp;gt; Topic" style="text;html=1;align=center;verticalAlign=middle;resizable=0;points=[];autosize=1;strokeColor=none;fillColor=none;" vertex="1" parent="1">
          <mxGeometry x="150" y="460" width="190" height="30" as="geometry" />
        </mxCell>
        <mxCell id="siveh0keMg_b1OPbo5xY-39" value="Objectives + Methods -&amp;gt; Probability" style="text;html=1;align=center;verticalAlign=middle;resizable=0;points=[];autosize=1;strokeColor=none;fillColor=none;" vertex="1" parent="1">
          <mxGeometry x="150" y="500" width="210" height="30" as="geometry" />
        </mxCell>
        <mxCell id="siveh0keMg_b1OPbo5xY-42" value="Background Tracking?" style="text;html=1;align=center;verticalAlign=middle;resizable=0;points=[];autosize=1;strokeColor=none;fillColor=none;" vertex="1" parent="1">
          <mxGeometry x="515" y="300" width="140" height="30" as="geometry" />
        </mxCell>
        <mxCell id="siveh0keMg_b1OPbo5xY-43" value="Objectives + (Background + Methods) -&amp;gt; Results" style="text;html=1;strokeColor=none;fillColor=none;align=center;verticalAlign=middle;whiteSpace=wrap;rounded=0;" vertex="1" parent="1">
          <mxGeometry x="75" y="535" width="320" height="30" as="geometry" />
        </mxCell>
        <mxCell id="siveh0keMg_b1OPbo5xY-44" value="Background:&amp;nbsp;&lt;br&gt;1. Extract background from citing abstracts&lt;br&gt;2. Extract methods from citing abstracts&lt;br&gt;3. Citation Contexts&lt;br&gt;4. Extract background from cited abstracts" style="text;html=1;align=left;verticalAlign=middle;resizable=0;points=[];autosize=1;strokeColor=none;fillColor=none;" vertex="1" parent="1">
          <mxGeometry x="490" y="480" width="250" height="90" as="geometry" />
        </mxCell>
        <mxCell id="siveh0keMg_b1OPbo5xY-46" value="Result (B) + Background (Citation Contexts + B) + Objectives (A)&amp;nbsp; + Methods (B) -&amp;gt; Result (A)" style="text;html=1;align=center;verticalAlign=middle;resizable=0;points=[];autosize=1;strokeColor=none;fillColor=none;fontStyle=1" vertex="1" parent="1">
          <mxGeometry x="-75" y="650" width="550" height="30" as="geometry" />
        </mxCell>
        <mxCell id="siveh0keMg_b1OPbo5xY-47" value="Background (1,2,3,4) + Objectives (A) + Known Article (full-content) -&amp;gt; Methods&lt;br&gt;hyp: extracted from abstracts with classifier. -&amp;gt; Generate with ChatGPT.&lt;br&gt;ref: extracted from abstracts with classifier." style="text;html=1;align=center;verticalAlign=middle;resizable=0;points=[];autosize=1;strokeColor=none;fillColor=none;fontStyle=1" vertex="1" parent="1">
          <mxGeometry x="-75" y="673" width="470" height="60" as="geometry" />
        </mxCell>
        <mxCell id="siveh0keMg_b1OPbo5xY-49" value="Methods:&amp;nbsp;&lt;br&gt;1. Extract methods from citing abstracts&lt;br&gt;2. Citation Contexts (optional)" style="text;html=1;align=left;verticalAlign=middle;resizable=0;points=[];autosize=1;strokeColor=none;fillColor=none;" vertex="1" parent="1">
          <mxGeometry x="490" y="575" width="230" height="60" as="geometry" />
        </mxCell>
        <mxCell id="siveh0keMg_b1OPbo5xY-50" value="Methods + Background (1,2,3,4) -&amp;gt; Topic" style="text;html=1;align=center;verticalAlign=middle;resizable=0;points=[];autosize=1;strokeColor=none;fillColor=none;fontStyle=1" vertex="1" parent="1">
          <mxGeometry x="-75" y="820" width="250" height="30" as="geometry" />
        </mxCell>
        <mxCell id="siveh0keMg_b1OPbo5xY-51" value="Objectives + Methods -&amp;gt; Probability" style="text;html=1;align=center;verticalAlign=middle;resizable=0;points=[];autosize=1;strokeColor=none;fillColor=none;" vertex="1" parent="1">
          <mxGeometry x="-75" y="850" width="210" height="30" as="geometry" />
        </mxCell>
        <mxCell id="siveh0keMg_b1OPbo5xY-52" value="&lt;b&gt;&lt;br&gt;&lt;/b&gt;" style="text;html=1;align=center;verticalAlign=middle;resizable=0;points=[];autosize=1;strokeColor=none;fillColor=none;" vertex="1" parent="1">
          <mxGeometry x="-50" y="718" width="20" height="30" as="geometry" />
        </mxCell>
        <mxCell id="siveh0keMg_b1OPbo5xY-53" value="A: Newer&lt;br&gt;B: Older" style="text;html=1;align=left;verticalAlign=middle;resizable=0;points=[];autosize=1;strokeColor=none;fillColor=none;fontStyle=1" vertex="1" parent="1">
          <mxGeometry x="-5" y="610" width="80" height="40" as="geometry" />
        </mxCell>
      </root>
    </mxGraphModel>
  </diagram>
</mxfile>
